<?xml version="1.0" encoding="UTF-8"?>
<!DOCTYPE svg PUBLIC "-//W3C//DTD SVG 1.1//EN" "http://www.w3.org/Graphics/SVG/1.1/DTD/svg11.dtd">
<svg xmlns="http://www.w3.org/2000/svg" version="1.1" width="32px" height="32px" style="shape-rendering:geometricPrecision; text-rendering:geometricPrecision; image-rendering:optimizeQuality; fill-rule:evenodd; clip-rule:evenodd" xmlns:xlink="http://www.w3.org/1999/xlink">
<g><path style="opacity:1" fill="#d564b7" d="M 14.5,0.5 C 12.4788,1.85452 10.8121,3.52119 9.5,5.5C 9.5,5.83333 9.5,6.16667 9.5,6.5C 7.18614,5.82135 6.85281,4.48801 8.5,2.5C 10.1727,0.91374 12.1727,0.247073 14.5,0.5 Z"/></g>
<g><path style="opacity:1" fill="#cf68c9" d="M 15.5,2.5 C 14.5,3.83333 13.5,5.16667 12.5,6.5C 11.5,6.5 10.5,6.5 9.5,6.5C 9.5,6.16667 9.5,5.83333 9.5,5.5C 11.5,4.5 13.5,3.5 15.5,2.5 Z"/></g>
<g><path style="opacity:1" fill="#d265c0" d="M 14.5,0.5 C 15.8333,0.5 17.1667,0.5 18.5,0.5C 17.7095,1.40128 16.7095,2.06795 15.5,2.5C 13.5,3.5 11.5,4.5 9.5,5.5C 10.8121,3.52119 12.4788,1.85452 14.5,0.5 Z"/></g>
<g><path style="opacity:1" fill="#cc69d3" d="M 18.5,0.5 C 19.4916,0.32842 20.1583,0.661754 20.5,1.5C 18.1667,2.5 16.5,4.16667 15.5,6.5C 14.5,6.5 13.5,6.5 12.5,6.5C 13.5,5.16667 14.5,3.83333 15.5,2.5C 16.7095,2.06795 17.7095,1.40128 18.5,0.5 Z"/></g>
<g><path style="opacity:1" fill="#c86ddf" d="M 20.5,1.5 C 21.4916,1.32842 22.1583,1.66175 22.5,2.5C 21.1667,3.83333 19.8333,5.16667 18.5,6.5C 17.5,6.5 16.5,6.5 15.5,6.5C 16.5,4.16667 18.1667,2.5 20.5,1.5 Z"/></g>
<g><path style="opacity:1" fill="#c071ec" d="M 22.5,2.5 C 23.2341,3.70792 23.5674,5.04125 23.5,6.5C 21.8333,6.5 20.1667,6.5 18.5,6.5C 19.8333,5.16667 21.1667,3.83333 22.5,2.5 Z"/></g>
<g><path style="opacity:1" fill="#c36fea" d="M 12.5,8.5 C 13.5,8.5 14.5,8.5 15.5,8.5C 15.1667,10.8333 13.8333,12.1667 11.5,12.5C 11.5569,11.391 11.8902,10.391 12.5,9.5C 12.5,9.16667 12.5,8.83333 12.5,8.5 Z"/></g>
<g><path style="opacity:1" fill="#d068ca" d="M 8.5,8.5 C 6.84371,10.4602 5.17704,12.4602 3.5,14.5C 2.00275,10.3046 3.66941,8.30461 8.5,8.5 Z"/></g>
<g><path style="opacity:1" fill="#cb6ad7" d="M 8.5,8.5 C 9.83333,8.5 11.1667,8.5 12.5,8.5C 12.5,8.83333 12.5,9.16667 12.5,9.5C 9.62978,10.4333 7.29645,12.1 5.5,14.5C 4.83333,14.5 4.16667,14.5 3.5,14.5C 5.17704,12.4602 6.84371,10.4602 8.5,8.5 Z"/></g>
<g><path style="opacity:1" fill="#b974ee" d="M 15.5,8.5 C 16.8333,8.5 18.1667,8.5 19.5,8.5C 17.5,10.5 15.5,12.5 13.5,14.5C 11.8333,14.5 10.1667,14.5 8.5,14.5C 9.29049,13.5987 10.2905,12.9321 11.5,12.5C 13.8333,12.1667 15.1667,10.8333 15.5,8.5 Z"/></g>
<g><path style="opacity:1" fill="#a57eed" d="M 19.5,8.5 C 21.5,8.5 23.5,8.5 25.5,8.5C 22.536,9.80795 20.2026,11.8079 18.5,14.5C 16.8333,14.5 15.1667,14.5 13.5,14.5C 15.5,12.5 17.5,10.5 19.5,8.5 Z"/></g>
<g><path style="opacity:1" fill="#8e87ed" d="M 25.5,8.5 C 26.1667,8.5 26.5,8.83333 26.5,9.5C 24.6397,10.9387 22.973,12.6053 21.5,14.5C 20.5,14.5 19.5,14.5 18.5,14.5C 20.2026,11.8079 22.536,9.80795 25.5,8.5 Z"/></g>
<g><path style="opacity:1" fill="#c76de3" d="M 12.5,9.5 C 11.8902,10.391 11.5569,11.391 11.5,12.5C 10.2905,12.9321 9.29049,13.5987 8.5,14.5C 7.5,14.5 6.5,14.5 5.5,14.5C 7.29645,12.1 9.62978,10.4333 12.5,9.5 Z"/></g>
<g><path style="opacity:1" fill="#7b92ec" d="M 26.5,9.5 C 28.256,10.5521 28.9227,12.2188 28.5,14.5C 26.1667,14.5 23.8333,14.5 21.5,14.5C 22.973,12.6053 24.6397,10.9387 26.5,9.5 Z"/></g>
<g><path style="opacity:1" fill="#c66fe3" d="M 4.5,16.5 C 2.81725,17.8534 1.48392,19.5201 0.5,21.5C 0.166667,21.5 -0.166667,21.5 -0.5,21.5C -0.5,20.1667 -0.5,18.8333 -0.5,17.5C 1.04181,16.6993 2.70848,16.366 4.5,16.5 Z"/></g>
<g><path style="opacity:1" fill="#bb73ee" d="M 4.5,16.5 C 6.16667,16.5 7.83333,16.5 9.5,16.5C 9.0472,17.4584 8.38053,18.2917 7.5,19C 4.93978,19.3838 2.60645,20.2171 0.5,21.5C 1.48392,19.5201 2.81725,17.8534 4.5,16.5 Z"/></g>
<g><path style="opacity:1" fill="#888bec" d="M 15.5,16.5 C 16.8333,16.5 18.1667,16.5 19.5,16.5C 18.3065,17.2719 17.3065,18.2719 16.5,19.5C 15.5,19.5 14.5,19.5 13.5,19.5C 13.5,19.1667 13.5,18.8333 13.5,18.5C 14.1667,17.8333 14.8333,17.1667 15.5,16.5 Z"/></g>
<g><path style="opacity:1" fill="#9b82ee" d="M 12.5,16.5 C 13.5,16.5 14.5,16.5 15.5,16.5C 14.8333,17.1667 14.1667,17.8333 13.5,18.5C 11.5393,19.4602 9.87264,20.7935 8.5,22.5C 7.5,22.5 6.5,22.5 5.5,22.5C 7.83333,20.5 10.1667,18.5 12.5,16.5 Z"/></g>
<g><path style="opacity:1" fill="#6d97eb" d="M 19.5,16.5 C 21.5,16.5 23.5,16.5 25.5,16.5C 23.4504,18.5475 21.117,20.2141 18.5,21.5C 18.1667,20.5 17.5,19.8333 16.5,19.5C 17.3065,18.2719 18.3065,17.2719 19.5,16.5 Z"/></g>
<g><path style="opacity:1" fill="#5b9feb" d="M 25.5,16.5 C 26.5,16.5 27.5,16.5 28.5,16.5C 25.6085,17.7891 23.2752,19.7891 21.5,22.5C 20.209,22.7373 19.209,22.404 18.5,21.5C 21.117,20.2141 23.4504,18.5475 25.5,16.5 Z"/></g>
<g><path style="opacity:1" fill="#4da5eb" d="M 28.5,16.5 C 29.4916,16.3284 30.1583,16.6618 30.5,17.5C 27.6061,18.2561 25.6061,19.9228 24.5,22.5C 23.5,22.5 22.5,22.5 21.5,22.5C 23.2752,19.7891 25.6085,17.7891 28.5,16.5 Z"/></g>
<g><path style="opacity:1" fill="#aa7dee" d="M 9.5,16.5 C 10.5,16.5 11.5,16.5 12.5,16.5C 10.1667,18.5 7.83333,20.5 5.5,22.5C 3.58533,22.7845 1.91866,22.4511 0.5,21.5C 2.60645,20.2171 4.93978,19.3838 7.5,19C 8.38053,18.2917 9.0472,17.4584 9.5,16.5 Z"/></g>
<g><path style="opacity:1" fill="#3fabeb" d="M 30.5,17.5 C 29.759,19.3542 28.759,21.0209 27.5,22.5C 26.5,22.5 25.5,22.5 24.5,22.5C 25.6061,19.9228 27.6061,18.2561 30.5,17.5 Z"/></g>
<g><path style="opacity:1" fill="#3fb0e9" d="M 30.5,17.5 C 30.8333,17.5 31.1667,17.5 31.5,17.5C 31.5,18.8333 31.5,20.1667 31.5,21.5C 30.2921,22.2341 28.9587,22.5674 27.5,22.5C 28.759,21.0209 29.759,19.3542 30.5,17.5 Z"/></g>
<g><path style="opacity:1" fill="#8d89ec" d="M 13.5,18.5 C 13.5,18.8333 13.5,19.1667 13.5,19.5C 12.656,21.7593 10.9893,22.7593 8.5,22.5C 9.87264,20.7935 11.5393,19.4602 13.5,18.5 Z"/></g>
<g><path style="opacity:1" fill="#3eb1eb" d="M 27.5,24.5 C 25.5323,26.5762 23.5323,27.9095 21.5,28.5C 20.8333,28.8333 20.1667,29.1667 19.5,29.5C 19.5,27.8333 19.5,26.1667 19.5,24.5C 22.1667,24.5 24.8333,24.5 27.5,24.5 Z"/></g>
<g><path style="opacity:1" fill="#898aec" d="M 8.5,24.5 C 7.24016,26.3671 5.57349,27.7005 3.5,28.5C 2.56552,27.4324 2.23219,26.099 2.5,24.5C 4.5,24.5 6.5,24.5 8.5,24.5 Z"/></g>
<g><path style="opacity:1" fill="#40baea" d="M 27.5,24.5 C 28.3382,24.8417 28.6716,25.5084 28.5,26.5C 26.5742,27.2423 24.7409,28.2423 23,29.5C 22.6174,28.944 22.1174,28.6107 21.5,28.5C 23.5323,27.9095 25.5323,26.5762 27.5,24.5 Z"/></g>
<g><path style="opacity:1" fill="#7494eb" d="M 8.5,24.5 C 9.5,24.5 10.5,24.5 11.5,24.5C 11.5,25.5 11.5,26.5 11.5,27.5C 9.11752,29.0461 6.45085,29.7128 3.5,29.5C 3.5,29.1667 3.5,28.8333 3.5,28.5C 5.57349,27.7005 7.24016,26.3671 8.5,24.5 Z"/></g>
<g><path style="opacity:1" fill="#42bfe9" d="M 28.5,26.5 C 28.4894,28.0174 27.8228,29.1841 26.5,30C 23.9615,30.7958 21.6282,30.6291 19.5,29.5C 20.1667,29.1667 20.8333,28.8333 21.5,28.5C 22.1174,28.6107 22.6174,28.944 23,29.5C 24.7409,28.2423 26.5742,27.2423 28.5,26.5 Z"/></g>
<g><path style="opacity:1" fill="#679fec" d="M 11.5,27.5 C 11.5,28.5 11.5,29.5 11.5,30.5C 8.61456,30.8064 5.9479,30.4731 3.5,29.5C 6.45085,29.7128 9.11752,29.0461 11.5,27.5 Z"/></g>
</svg>
