<?xml version="1.0" encoding="UTF-8" standalone="no"?>
<!DOCTYPE svg PUBLIC "-//W3C//DTD SVG 1.1//EN" "http://www.w3.org/Graphics/SVG/1.1/DTD/svg11.dtd">
<svg xmlns="http://www.w3.org/2000/svg" version="1.1" viewBox="0 0 1264 320">
<path fill="#df4c20" d="M 162.74,60.48 Q 170.21,51.99 181.00,47.00 Q 184.84,45.22 188.76,44.81 Q 190.24,44.66 196.73,44.64 Q 203.25,44.61 206.69,45.81 Q 224.17,51.90 232.94,68.56 Q 234.41,71.37 235.16,74.10 Q 236.24,78.04 236.75,79.80 Q 238.32,85.17 237.28,90.69 Q 237.00,92.18 236.27,96.89 Q 235.72,100.42 233.90,103.51 Q 231.86,106.97 231.79,107.10 Q 224.30,120.80 209.39,125.75 Q 209.26,125.79 205.81,127.07 Q 203.97,127.74 202.00,128.03 Q 190.81,129.62 180.79,126.06 Q 171.27,122.68 164.17,115.25 Q 156.65,107.38 153.93,96.69 Q 151.46,86.96 153.65,77.78 Q 155.94,68.21 162.74,60.48 Z"/>
<path fill="#df4c20" d="M 138.68,94.05 Q 144.04,98.70 146.58,105.35 Q 149.04,111.81 149.75,117.00 Q 150.43,121.99 148.89,127.54 Q 144.78,142.36 131.44,148.94 Q 129.09,150.10 127.61,150.90 Q 125.40,152.10 123.64,152.42 Q 115.44,153.90 107.81,152.69 Q 104.36,152.14 102.75,152.03 A 1.39,1.39 69.3 0 1 101.89,151.64 Q 100.36,150.17 98.48,149.23 Q 95.74,147.86 94.89,147.22 Q 90.15,143.66 86.81,139.94 Q 84.51,137.36 83.01,133.97 Q 81.77,131.15 80.62,127.39 Q 78.10,119.20 80.25,111.25 Q 81.02,108.42 82.92,104.37 Q 84.46,101.09 86.94,98.25 Q 91.26,93.29 93.81,91.56 Q 117.40,75.63 138.68,94.05 Z"/>
<path fill="#df4c20" d="M 252.68,144.81 Q 248.35,141.31 245.50,136.70 Q 242.78,132.32 241.65,126.78 Q 240.15,119.41 241.62,112.11 Q 243.04,105.04 247.55,99.08 Q 253.20,91.62 261.54,87.67 Q 270.84,83.27 280.98,84.65 Q 292.58,86.23 301.06,94.69 Q 306.02,99.62 308.75,106.74 Q 311.36,113.52 311.15,120.54 Q 310.76,133.47 301.56,142.56 Q 297.15,146.93 289.51,151.06 Q 286.73,152.57 283.65,152.85 Q 277.05,153.44 270.48,152.82 Q 265.27,152.33 261.03,150.20 Q 256.59,147.97 252.68,144.81 Z"/>
<path fill="#df4c20" d="M 462.19,159.24 Q 464.14,160.29 466.16,161.20 Q 468.30,162.16 469.83,163.55 Q 475.46,168.69 476.44,170.06 Q 479.52,174.42 480.52,179.48 Q 481.28,183.34 481.57,189.50 Q 481.90,196.62 479.56,204.06 Q 477.56,210.42 473.83,214.58 Q 468.95,220.00 463.01,224.24 Q 458.09,227.74 452.33,229.17 Q 449.13,229.97 445.99,231.09 Q 441.53,232.68 437.00,232.75 Q 406.66,233.22 377.16,232.95 Q 374.75,232.92 374.75,230.52 L 374.81,95.46 Q 374.81,92.77 377.50,92.76 Q 408.25,92.59 437.75,93.00 Q 440.95,93.04 450.75,95.75 Q 457.48,97.61 462.51,100.18 Q 468.22,103.10 472.09,107.97 Q 478.43,115.92 479.07,126.23 Q 479.46,132.46 478.31,137.72 Q 477.08,143.31 473.75,148.50 Q 469.26,155.49 462.21,158.79 Q 461.75,159.00 462.19,159.24 ZM 415.19,127.42 Q 414.48,130.17 414.77,133.00 Q 415.21,137.27 414.40,142.11 A 1.89,1.88 -76.6 0 0 415.69,144.22 Q 422.37,146.34 427.86,142.59 Q 430.61,140.72 432.05,138.80 Q 434.26,135.87 432.66,132.72 Q 431.26,129.93 427.15,128.19 Q 422.51,126.22 417.44,125.82 Q 415.65,125.68 415.19,127.42 ZM 414.94,178.42 Q 414.65,186.34 414.51,194.25 Q 414.41,199.36 418.94,198.69 Q 422.17,198.21 424.13,197.97 Q 427.82,197.53 429.26,196.96 Q 436.98,193.90 435.30,185.18 Q 434.91,183.18 433.45,181.65 Q 432.03,180.16 430.39,178.91 Q 428.59,177.54 426.07,177.31 Q 421.19,176.87 416.38,177.00 A 1.47,1.47 -89.6 0 0 414.94,178.42 Z"/>
<path fill="#df4c20" d="M 595.45,94.92 A 2.30,2.29 4.6 0 1 597.04,93.57 Q 601.59,92.50 606.25,92.52 Q 650.25,92.75 694.25,92.53 Q 699.52,92.50 702.19,93.31 Q 705.54,94.33 705.31,98.50 Q 704.97,104.68 705.25,115.75 Q 705.35,119.65 702.84,122.89 Q 701.42,124.73 701.36,124.81 Q 678.51,157.35 655.35,189.66 Q 654.71,190.56 653.25,191.96 Q 651.90,193.26 651.39,194.51 Q 650.27,197.34 653.31,197.27 Q 675.09,196.77 696.29,197.17 Q 701.73,197.27 703.90,198.70 Q 707.30,200.95 707.09,205.85 Q 707.00,208.09 707.00,208.16 Q 707.00,215.95 707.00,223.74 Q 707.00,228.10 705.72,229.98 Q 703.68,233.00 699.25,233.00 Q 649.78,233.05 600.31,232.95 Q 597.10,232.95 595.42,230.89 Q 594.27,229.49 594.14,226.29 Q 593.92,221.16 593.95,216.03 Q 593.98,208.22 594.01,207.98 Q 594.51,204.51 596.75,201.66 Q 598.59,199.31 598.63,199.25 Q 620.98,167.53 643.40,135.85 Q 643.91,135.13 645.53,133.54 Q 646.68,132.42 647.42,130.96 Q 648.69,128.49 645.92,128.50 Q 624.93,128.54 604.52,128.45 Q 599.59,128.43 597.78,127.47 Q 594.50,125.73 594.68,121.19 Q 594.75,119.39 594.75,119.30 Q 594.75,108.78 594.77,98.25 Q 594.77,96.52 595.45,94.92 Z"/>
<path fill="#df4c20" d="M 748.19,112.69 Q 758.86,100.88 772.34,95.91 Q 772.41,95.89 776.38,94.09 Q 778.54,93.11 781.00,93.02 Q 802.76,92.22 824.50,93.25 Q 825.82,93.31 828.25,94.55 Q 830.16,95.51 831.93,95.97 Q 838.62,97.68 842.44,100.06 Q 846.53,102.62 844.60,107.65 Q 841.36,116.07 838.25,124.54 Q 837.12,127.62 835.51,130.47 Q 834.14,132.89 831.73,133.41 Q 830.34,133.70 827.26,133.52 Q 823.95,133.33 820.44,131.81 Q 811.54,127.97 799.75,127.75 Q 795.66,127.67 792.46,128.70 Q 789.31,129.72 786.53,132.64 Q 781.81,137.60 779.44,144.94 Q 775.24,157.95 776.64,170.40 Q 776.85,172.20 777.97,175.44 Q 778.83,177.95 779.22,180.58 Q 779.71,183.84 780.66,185.67 Q 781.90,188.07 783.44,190.31 Q 787.30,195.91 793.75,197.25 Q 796.95,197.92 801.50,198.25 Q 803.29,198.38 811.31,197.35 Q 816.04,196.73 820.87,195.17 Q 826.07,193.50 831.27,191.82 Q 836.92,190.00 839.72,193.81 Q 840.94,195.48 840.89,198.62 Q 840.71,209.22 840.69,219.81 Q 840.69,222.94 839.47,224.76 Q 837.37,227.94 833.75,228.75 Q 828.93,229.83 826.69,230.94 Q 824.35,232.09 820.45,232.66 Q 818.21,232.98 814.02,233.08 Q 790.56,233.62 783.25,233.25 Q 776.53,232.91 769.65,230.09 Q 763.40,227.53 757.47,223.55 Q 746.85,216.42 740.38,205.12 Q 739.86,204.22 738.69,201.09 Q 737.92,199.00 736.57,197.18 Q 735.34,195.54 735.06,193.59 Q 734.54,190.01 734.54,189.98 Q 733.84,187.44 732.94,184.96 Q 731.96,182.24 731.76,179.88 Q 730.75,167.77 731.34,155.63 Q 731.42,153.83 731.97,149.90 Q 732.36,147.03 732.46,144.13 Q 732.53,142.29 733.24,140.54 Q 733.95,138.80 734.49,137.00 Q 738.60,123.30 748.19,112.69 Z"/>
<path fill="#df4c20" d="M 887.19,109.94 Q 897.61,98.81 912.13,94.26 Q 916.17,92.99 921.53,92.92 Q 933.20,92.75 955.75,92.75 Q 963.20,92.75 969.26,95.11 Q 991.95,103.95 1002.00,126.10 Q 1003.32,129.00 1003.53,131.78 Q 1003.73,134.40 1005.06,136.68 Q 1006.63,139.38 1006.93,142.48 Q 1008.79,161.48 1007.01,180.45 Q 1006.57,185.12 1005.02,189.86 Q 1002.56,197.36 1001.69,198.94 Q 1000.39,201.29 999.68,202.87 Q 998.29,206.00 997.77,206.80 Q 987.81,222.07 969.75,229.50 Q 961.14,233.04 954.00,233.12 Q 946.58,233.21 939.16,233.24 Q 925.84,233.29 924.35,233.18 Q 917.45,232.71 910.85,230.68 Q 904.35,228.68 898.47,224.98 Q 882.26,214.79 875.50,196.75 Q 874.77,194.82 872.13,186.20 Q 871.01,182.56 870.86,178.65 Q 870.63,172.62 870.29,166.59 Q 870.00,161.37 870.25,156.89 Q 870.51,152.05 870.89,147.22 Q 870.89,147.13 870.97,144.29 Q 871.05,141.41 872.24,138.74 Q 873.47,135.98 873.83,132.98 Q 874.23,129.64 876.11,126.84 Q 877.22,125.19 878.05,123.39 Q 879.31,120.67 879.80,119.86 Q 883.12,114.28 887.19,109.94 ZM 924.44,132.94 Q 919.85,138.03 918.48,143.13 Q 916.06,152.18 915.77,161.49 Q 915.66,165.11 916.42,169.45 Q 917.11,173.39 917.88,177.31 Q 919.35,184.90 921.66,188.59 Q 927.80,198.39 940.54,197.72 Q 944.15,197.53 945.47,197.36 Q 948.27,196.99 950.19,195.69 Q 954.59,192.70 957.60,187.46 Q 958.84,185.30 959.41,181.72 Q 959.88,178.69 960.63,175.72 Q 961.96,170.42 962.11,167.25 Q 962.42,161.21 962.03,155.17 Q 961.85,152.44 960.65,148.50 Q 959.65,145.20 959.06,141.80 Q 958.58,139.05 957.37,137.18 Q 956.00,135.08 954.44,133.11 Q 952.19,130.25 949.21,128.94 Q 939.72,124.77 929.58,128.86 Q 927.29,129.78 924.44,132.94 Z"/>
<path fill="#df4c20" d="M 1084.45,164.24 Q 1084.22,164.86 1084.25,166.00 Q 1085.02,191.44 1084.75,213.25 Q 1084.69,217.74 1084.81,221.41 Q 1085.00,227.16 1084.17,228.97 Q 1082.32,233.00 1076.50,233.00 Q 1063.75,233.00 1051.00,232.94 Q 1047.07,232.92 1045.09,230.39 Q 1043.75,228.68 1043.75,224.77 Q 1043.75,162.01 1043.75,99.25 Q 1043.75,95.36 1046.24,93.85 Q 1047.60,93.02 1051.42,92.94 Q 1068.66,92.60 1085.90,92.73 Q 1086.03,92.73 1091.09,92.65 Q 1095.32,92.58 1098.00,93.25 Q 1099.95,93.74 1101.26,95.39 Q 1102.09,96.45 1102.65,98.84 Q 1103.51,102.54 1104.83,106.07 Q 1106.12,109.49 1106.93,113.14 Q 1107.95,117.80 1109.79,122.23 Q 1111.04,125.24 1110.92,128.50 Q 1110.82,131.39 1113.19,134.06 Q 1114.30,135.31 1114.49,137.30 Q 1114.72,139.63 1115.05,140.60 Q 1116.60,145.21 1117.99,149.87 Q 1118.05,150.07 1118.99,155.23 Q 1119.55,158.26 1121.39,161.21 Q 1121.90,162.03 1122.15,163.39 L 1124.65,176.94 Q 1124.86,178.05 1125.19,176.95 Q 1126.59,172.19 1127.88,167.40 Q 1128.44,165.30 1129.73,162.42 Q 1131.18,159.19 1131.25,157.25 Q 1131.39,153.17 1132.07,151.78 Q 1135.21,145.37 1136.05,137.81 Q 1136.24,136.12 1137.11,134.65 Q 1138.55,132.23 1139.14,129.35 Q 1139.77,126.33 1140.59,124.36 Q 1142.79,119.07 1143.40,113.34 Q 1143.61,111.31 1144.63,109.59 Q 1146.57,106.30 1146.69,104.69 Q 1147.02,100.21 1148.69,96.69 Q 1150.45,92.96 1154.81,92.92 Q 1177.53,92.70 1200.25,92.78 Q 1203.18,92.79 1205.74,94.08 A 1.13,1.08 -85.0 0 1 1206.32,94.80 Q 1207.25,98.26 1207.25,102.50 Q 1207.25,159.37 1207.25,216.25 Q 1207.25,217.74 1207.17,218.75 Q 1207.05,220.22 1207.17,221.25 Q 1207.74,225.96 1206.69,229.44 Q 1206.07,231.48 1204.03,232.30 Q 1202.95,232.73 1200.40,232.80 Q 1185.58,233.17 1170.75,233.01 Q 1163.51,232.93 1163.66,225.75 Q 1164.13,202.69 1163.52,179.62 Q 1163.44,176.65 1164.05,173.56 Q 1164.87,169.36 1165.00,167.50 Q 1165.19,164.70 1164.63,166.15 Q 1164.51,166.45 1164.46,166.87 Q 1163.72,173.01 1160.28,178.09 A 1.68,1.66 63.1 0 0 1159.99,179.00 Q 1159.80,184.23 1158.50,187.25 Q 1155.94,193.18 1155.19,200.69 Q 1154.97,202.87 1153.80,204.96 Q 1152.43,207.41 1152.06,208.97 Q 1150.63,214.98 1148.00,225.00 Q 1146.46,230.88 1141.65,232.44 Q 1139.99,232.98 1132.79,233.05 Q 1116.06,233.20 1108.00,232.75 Q 1105.78,232.63 1104.16,230.94 Q 1103.12,229.87 1102.20,227.41 Q 1100.40,222.57 1099.10,217.58 Q 1097.27,210.53 1096.39,207.65 Q 1092.86,196.16 1090.19,184.43 Q 1089.81,182.77 1088.62,180.88 Q 1087.36,178.87 1087.06,177.19 Q 1085.91,170.75 1084.77,164.31 Q 1084.66,163.66 1084.45,164.24 Z"/>
<path fill="#df4c20" d="M 523.24,95.39 Q 523.76,93.53 525.69,93.51 Q 539.30,93.37 552.23,93.68 Q 555.58,93.77 557.15,94.43 Q 559.71,95.52 561.02,97.91 Q 561.92,99.57 561.70,102.89 Q 561.50,105.87 561.50,110.00 Q 561.45,184.45 561.73,224.07 Q 561.75,226.60 560.60,228.11 Q 557.47,232.20 551.25,232.00 Q 538.16,231.58 525.52,231.93 Q 523.53,231.98 523.25,230.02 Q 522.45,224.42 522.59,218.77 Q 522.75,212.28 522.75,212.23 Q 522.75,157.78 522.75,103.33 Q 522.75,103.28 522.68,100.66 Q 522.59,97.74 523.24,95.39 Z"/>
<path fill="#df4c20" d="M 155.44,206.83 Q 152.94,207.00 150.67,208.14 Q 147.71,209.62 144.72,208.24 Q 138.84,205.52 136.10,200.29 Q 134.04,196.36 133.74,189.40 Q 133.22,176.98 137.94,163.94 Q 144.27,146.43 155.60,134.22 Q 157.67,131.99 158.82,130.71 Q 160.43,128.94 162.11,127.24 Q 164.21,125.12 166.10,124.99 Q 168.71,124.79 170.81,126.94 Q 172.17,128.32 176.36,129.80 Q 176.44,129.82 180.46,131.59 Q 182.97,132.69 186.50,133.00 Q 196.53,133.87 203.96,133.02 Q 205.81,132.81 207.77,131.71 Q 210.38,130.24 211.56,130.06 Q 215.76,129.42 217.50,128.00 Q 220.52,125.53 222.25,125.00 Q 224.78,124.23 227.28,126.49 Q 242.27,140.10 250.15,158.66 Q 250.22,158.83 251.52,162.52 Q 251.98,163.82 252.60,165.04 Q 253.29,166.43 253.55,167.59 Q 254.86,173.40 255.99,179.25 Q 257.48,186.99 256.05,194.76 Q 254.41,203.66 246.06,207.81 Q 244.35,208.66 242.72,208.80 Q 241.49,208.91 239.41,208.11 Q 237.50,207.37 235.80,206.90 A 1.23,1.23 4.1 0 0 234.25,208.24 Q 235.47,218.11 234.66,228.00 Q 234.65,228.09 234.57,231.49 Q 234.51,234.26 233.31,237.06 Q 231.41,241.54 230.46,246.78 Q 229.84,250.15 228.62,252.41 Q 224.60,259.80 220.00,264.50 Q 214.39,270.24 206.28,269.04 Q 200.61,268.20 198.81,263.94 Q 197.55,260.95 196.45,260.11 Q 193.70,258.00 192.41,261.22 Q 189.76,267.87 184.05,269.01 Q 181.34,269.56 178.44,269.34 Q 175.25,269.10 173.06,267.19 Q 165.51,260.58 160.69,250.06 Q 159.08,246.56 158.98,244.25 Q 158.81,240.13 157.19,237.56 Q 155.77,235.31 155.73,233.17 Q 155.70,231.90 155.70,231.82 Q 154.79,219.56 155.89,207.31 A 0.44,0.43 -88.8 0 0 155.44,206.83 ZM 201.5998,145.1352 A 6.42,3.97 -0.4 0 0 195.1523,141.2101 A 6.42,3.97 -0.4 0 0 188.7602,145.2248 A 6.42,3.97 -0.4 0 0 195.2077,149.1499 A 6.42,3.97 -0.4 0 0 201.5998,145.1352 ZM 188.94,206.06 Q 190.48,207.39 191.70,210.12 Q 192.36,211.61 193.19,212.12 Q 194.56,212.96 195.94,212.33 Q 196.88,211.89 198.25,209.90 Q 199.98,207.37 201.56,205.81 Q 204.75,202.66 204.01,198.50 Q 202.80,191.79 202.69,185.00 Q 202.58,178.79 201.97,175.07 Q 201.05,169.40 199.31,159.44 Q 198.87,156.92 197.25,155.48 Q 195.76,154.16 193.95,154.57 Q 191.86,155.04 191.31,157.56 Q 189.61,165.39 187.77,176.46 Q 187.09,180.58 187.24,184.75 Q 187.47,191.46 186.00,198.00 Q 184.96,202.64 188.94,206.06 Z"/>
<path fill="#df4c20" d="M 145.33,214.70 A 2.81,2.81 10.2 0 1 146.90,216.96 Q 148.21,230.43 146.25,242.75 Q 145.67,246.38 144.79,248.57 Q 143.59,251.57 143.56,251.66 Q 140.66,260.32 134.31,266.06 Q 129.63,270.30 123.51,269.11 Q 120.95,268.61 119.15,266.77 Q 117.43,265.01 116.15,262.64 Q 115.02,260.55 113.57,262.44 Q 112.14,264.30 110.78,265.89 Q 109.17,267.78 107.31,268.52 Q 100.87,271.09 95.44,266.31 Q 92.74,263.94 90.27,260.76 Q 88.27,258.19 86.73,254.15 Q 85.66,251.36 84.56,248.59 Q 83.39,245.65 83.09,242.85 Q 81.96,232.10 82.64,221.31 Q 82.77,219.28 82.21,218.29 Q 80.99,216.16 78.25,218.50 Q 75.81,220.58 73.43,219.39 Q 69.81,217.59 66.68,215.04 Q 63.67,212.59 62.94,209.09 Q 62.74,208.09 62.70,202.38 Q 62.66,196.43 63.00,192.00 Q 63.33,187.69 65.71,183.50 Q 68.48,178.62 71.08,173.63 Q 78.20,159.98 89.00,150.75 Q 91.64,148.49 94.31,151.19 Q 95.85,152.74 98.29,153.32 Q 99.98,153.72 100.86,154.36 Q 101.82,155.06 102.70,155.85 A 1.86,1.71 69.2 0 0 103.56,156.28 Q 115.41,158.41 125.19,156.44 Q 126.63,156.15 127.60,154.26 A 1.32,1.10 -82.2 0 1 128.28,153.64 Q 131.05,152.72 133.68,153.88 A 1.81,1.80 -80.1 0 1 134.76,155.42 Q 135.07,160.02 132.87,163.11 Q 130.83,165.97 130.75,169.00 Q 130.70,170.87 130.41,172.37 Q 130.27,173.12 129.20,175.48 Q 128.13,177.83 128.17,180.50 Q 128.22,184.77 128.24,189.03 Q 128.26,193.54 129.31,196.82 Q 130.12,199.35 131.19,201.79 Q 132.27,204.27 134.04,206.20 Q 138.98,211.61 145.33,214.70 Z"/>
<path fill="#df4c20" d="M 308.90,217.73 Q 306.53,218.99 307.13,221.61 Q 308.16,226.17 307.87,229.99 Q 307.44,235.61 307.15,241.24 Q 306.99,244.31 306.07,247.11 Q 305.15,249.97 304.20,252.82 Q 301.37,261.30 294.27,266.77 Q 289.29,270.61 283.63,268.87 Q 281.35,268.17 279.53,266.20 Q 277.88,264.44 276.48,262.24 A 1.27,1.19 46.0 0 0 274.42,262.14 L 271.74,266.19 Q 270.49,268.08 268.73,268.56 Q 259.52,271.09 254.21,264.79 Q 248.65,258.21 247.44,254.31 Q 246.55,251.47 245.43,248.71 Q 244.16,245.61 243.82,243.07 Q 242.14,230.55 243.12,216.50 A 2.46,2.45 77.2 0 1 244.36,214.53 Q 247.27,212.90 250.17,211.16 Q 259.76,205.43 261.63,194.27 Q 263.12,185.40 260.72,176.76 Q 259.36,171.84 259.03,167.24 A 5.07,5.05 -65.6 0 0 258.01,164.51 Q 254.91,160.42 255.26,155.06 A 1.05,1.02 -10.8 0 1 255.87,154.19 Q 258.61,152.96 261.01,153.39 A 1.58,1.22 69.7 0 1 261.81,153.89 Q 263.69,156.17 266.41,156.78 Q 267.44,157.01 271.60,157.17 Q 275.30,157.31 280.50,157.00 Q 284.97,156.74 288.25,154.69 Q 289.99,153.61 291.69,153.11 Q 293.94,152.45 295.19,151.44 Q 297.02,149.95 298.86,149.95 Q 300.31,149.95 302.14,151.48 Q 307.85,156.27 312.44,163.06 Q 320.07,174.36 325.24,185.76 Q 326.76,189.10 327.03,192.64 Q 327.32,196.34 327.32,200.05 Q 327.32,206.09 327.15,207.45 Q 325.95,216.62 315.04,219.58 A 2.92,2.91 57.9 0 1 312.38,218.97 Q 310.16,217.07 308.90,217.73 Z"/>
</svg>
