<?xml version="1.0" encoding="UTF-8" standalone="no"?>
<!DOCTYPE svg PUBLIC "-//W3C//DTD SVG 1.1//EN" "http://www.w3.org/Graphics/SVG/1.1/DTD/svg11.dtd">
<svg xmlns="http://www.w3.org/2000/svg" version="1.1" viewBox="0 0 1264 320">
<path fill="#df4c20" d="M 31.06,0.00 Q 31.44,0.00 31.81,0.00 Q 31.89,0.25 32.50,0.25 Q 632.75,0.28 1233.00,0.21 Q 1246.99,1.96 1255.34,13.17 Q 1261.32,21.21 1262.00,31.25 Q 1262.25,35.01 1262.25,43.00 Q 1262.25,159.25 1262.25,275.49 Q 1262.25,289.80 1260.79,295.38 Q 1255.64,315.15 1233.19,320.00 Q 632.06,320.00 30.94,320.00 Q 9.01,315.61 3.27,295.57 Q 2.00,291.12 2.00,283.79 Q 2.00,160.26 2.00,36.73 Q 2.00,28.98 3.29,24.41 Q 8.97,4.33 31.06,0.00 ZM 222.31,54.94 Q 211.64,45.22 198.11,44.65 Q 192.02,44.39 187.89,44.93 Q 182.72,45.61 178.06,48.32 Q 173.23,51.13 168.79,54.54 Q 155.56,64.71 152.90,81.29 Q 151.99,86.97 153.31,93.69 Q 156.69,110.83 170.31,120.69 Q 185.00,131.33 204.10,127.54 Q 205.30,127.31 206.80,126.66 Q 208.11,126.10 209.47,125.64 Q 212.67,124.54 213.47,124.18 Q 224.98,119.04 231.13,108.13 Q 231.18,108.03 233.62,104.00 Q 235.36,101.12 236.05,97.86 Q 236.54,95.54 237.36,90.21 Q 237.96,86.30 237.39,82.34 Q 237.16,80.77 236.22,78.28 Q 235.15,75.43 235.06,74.19 Q 234.88,71.64 233.59,69.56 Q 232.05,67.07 231.98,66.94 Q 228.57,60.64 222.31,54.94 ZM 139.06,94.69 Q 132.06,88.17 123.75,85.68 Q 116.13,83.39 108.15,85.01 Q 100.07,86.65 93.56,91.81 Q 88.83,95.57 84.36,101.49 Q 83.56,102.54 83.09,103.80 Q 82.62,105.05 82.17,106.31 Q 82.13,106.44 80.78,109.74 Q 79.65,112.54 79.46,115.56 Q 79.29,118.28 79.38,121.44 Q 79.51,125.61 81.30,129.38 Q 82.08,131.04 82.56,132.92 Q 83.11,135.09 84.06,136.44 Q 89.42,143.99 97.76,149.04 Q 102.38,151.84 107.65,152.62 Q 115.77,153.82 123.93,152.30 Q 125.52,152.00 127.25,151.07 Q 128.83,150.22 130.45,149.45 Q 136.67,146.51 141.20,141.62 Q 145.64,136.83 147.87,130.47 Q 152.11,118.35 146.97,105.62 Q 144.67,99.91 139.06,94.69 ZM 310.7813,114.3425 A 35.14,34.45 -7.6 0 0 271.3938,84.8426 A 35.14,34.45 -7.6 0 0 241.1187,123.6375 A 35.14,34.45 -7.6 0 0 280.5062,153.1374 A 35.14,34.45 -7.6 0 0 310.7813,114.3425 ZM 462.71,159.50 Q 461.38,158.86 462.74,158.27 Q 468.36,155.86 471.84,151.11 Q 474.93,146.90 477.44,141.19 Q 478.31,139.19 478.48,137.27 Q 478.74,134.29 478.74,134.25 Q 480.99,118.86 471.74,107.58 Q 468.15,103.19 463.04,100.31 Q 458.03,97.49 452.34,96.08 Q 448.40,95.11 444.46,94.18 Q 440.40,93.22 436.44,93.04 Q 430.47,92.77 424.50,92.77 Q 400.75,92.75 376.98,92.75 Q 374.75,92.75 374.75,94.98 Q 374.75,162.38 374.80,230.25 Q 374.80,233.32 377.54,233.10 Q 378.83,233.00 378.98,233.00 Q 403.86,233.00 428.75,232.94 Q 433.48,232.93 438.19,232.67 Q 441.29,232.49 445.00,231.25 Q 448.10,230.22 451.27,229.42 Q 455.30,228.41 457.44,227.40 Q 463.93,224.33 469.11,219.40 Q 473.00,215.69 474.95,213.17 Q 477.54,209.83 479.06,205.56 Q 482.45,196.03 481.41,186.43 Q 480.75,180.32 480.26,178.04 Q 479.30,173.61 476.50,170.25 Q 474.19,167.48 469.69,163.41 Q 468.24,162.09 466.35,161.22 Q 464.37,160.30 462.71,159.50 ZM 595.85,94.51 Q 594.75,95.64 594.75,97.22 Q 594.75,110.25 594.62,122.25 Q 594.58,125.82 597.69,127.30 Q 600.55,128.65 603.69,128.55 Q 605.24,128.50 605.31,128.50 Q 625.24,128.50 645.17,128.50 Q 646.28,128.50 646.80,128.75 Q 647.85,129.26 647.57,130.46 Q 647.40,131.20 646.47,132.20 Q 643.89,134.97 642.69,136.69 Q 620.77,167.92 598.70,199.06 Q 598.66,199.12 596.80,201.47 Q 594.51,204.37 594.01,207.92 Q 594.00,208.01 594.00,216.09 Q 594.00,221.42 594.01,226.75 Q 594.02,231.90 598.93,232.74 Q 600.47,233.00 602.02,233.00 Q 651.00,233.00 699.00,232.94 Q 703.45,232.94 705.64,230.00 Q 707.00,228.17 707.00,224.16 Q 707.00,215.31 707.00,206.46 Q 707.00,202.29 705.69,200.33 Q 703.62,197.25 699.50,197.25 Q 676.50,197.25 653.50,197.30 Q 650.32,197.30 651.12,195.07 Q 651.40,194.28 652.56,193.00 Q 654.16,191.24 655.56,189.31 Q 666.92,173.62 678.15,157.84 Q 680.77,154.16 689.51,141.39 Q 696.21,131.60 702.44,123.44 Q 704.76,120.40 705.23,116.93 Q 705.25,116.74 705.25,110.06 Q 705.25,103.78 705.25,97.48 Q 705.25,94.61 702.57,93.57 Q 699.84,92.52 696.25,92.53 Q 648.53,92.70 600.81,92.72 Q 597.60,92.72 595.85,94.51 ZM 748.19,112.69 Q 740.52,121.44 736.38,131.47 Q 735.82,132.84 735.06,135.74 Q 734.32,138.55 733.44,139.94 Q 732.20,141.88 732.39,145.70 Q 732.42,146.29 732.34,146.87 Q 730.18,162.30 731.62,177.21 Q 731.63,177.30 731.73,179.80 Q 731.85,182.80 733.50,186.50 Q 734.79,189.38 735.44,195.00 Q 735.50,195.49 735.79,195.91 Q 737.40,198.19 738.43,200.78 Q 740.63,206.28 744.04,211.05 Q 747.20,215.48 752.02,219.45 Q 762.10,227.79 774.63,231.68 Q 778.92,233.01 784.54,233.14 Q 800.52,233.51 816.50,232.96 Q 822.92,232.74 826.69,230.94 Q 830.03,229.33 832.25,229.00 Q 837.16,228.26 839.54,224.55 Q 840.75,222.65 840.72,219.17 Q 840.65,208.83 840.93,198.49 Q 841.01,195.43 839.82,193.83 Q 837.37,190.56 832.50,191.50 Q 829.13,192.16 825.93,193.41 Q 813.93,198.09 801.00,198.12 Q 786.69,198.14 780.91,186.25 Q 779.95,184.27 779.19,180.57 Q 778.58,177.64 777.81,174.75 Q 776.38,169.38 776.30,165.98 Q 776.06,155.92 779.06,145.81 Q 781.35,138.13 786.53,132.66 Q 789.44,129.60 792.82,128.60 Q 796.26,127.58 800.50,127.75 Q 809.50,128.12 816.55,130.27 Q 816.62,130.28 821.19,132.15 Q 824.48,133.49 828.08,133.56 Q 830.93,133.61 831.91,133.38 Q 833.96,132.91 835.16,130.92 Q 837.26,127.44 838.63,123.65 Q 840.75,117.79 841.43,116.15 Q 842.83,112.77 843.94,109.28 Q 843.96,109.20 844.87,106.92 Q 846.22,103.55 843.44,101.06 Q 840.59,98.51 836.72,97.36 Q 831.29,95.76 830.58,95.48 Q 824.65,93.13 823.00,93.00 Q 816.13,92.46 783.50,92.68 Q 779.81,92.71 776.53,94.09 Q 772.63,95.74 772.48,95.79 Q 758.46,100.97 748.19,112.69 ZM 887.19,109.94 Q 883.15,114.30 879.77,119.79 Q 879.30,120.56 878.04,123.36 Q 877.26,125.08 876.06,126.81 Q 874.38,129.25 874.10,132.51 Q 873.81,135.91 872.24,138.91 Q 871.35,140.61 871.00,145.25 Q 869.49,165.22 871.17,181.60 Q 871.45,184.33 872.42,187.27 Q 873.33,190.04 874.20,192.81 Q 875.85,198.04 877.27,200.99 Q 889.02,225.35 916.12,231.96 Q 920.94,233.13 930.50,233.25 Q 941.44,233.38 952.38,233.15 Q 959.12,233.01 963.94,231.62 Q 983.93,225.85 996.53,208.75 Q 996.58,208.68 997.40,207.68 Q 998.66,206.13 999.31,203.56 Q 999.79,201.66 1001.21,199.38 Q 1002.47,197.36 1003.06,195.29 Q 1003.96,192.10 1005.36,189.09 Q 1006.04,187.63 1006.50,184.00 Q 1009.22,162.47 1006.49,140.34 Q 1006.33,139.05 1005.66,137.93 Q 1004.29,135.64 1003.75,132.94 Q 1002.99,129.09 1002.48,127.84 Q 992.45,103.33 967.03,94.42 Q 962.26,92.75 955.50,92.75 Q 940.05,92.75 924.60,92.75 Q 918.00,92.75 913.53,93.96 Q 898.15,98.09 887.19,109.94 ZM 1084.99,163.30 Q 1085.64,169.32 1087.08,175.18 Q 1087.12,175.31 1087.50,177.97 Q 1087.78,179.93 1089.15,181.40 A 1.86,1.45 23.5 0 1 1089.60,182.23 Q 1092.12,193.74 1095.63,204.97 Q 1096.97,209.26 1098.54,215.53 Q 1099.87,220.86 1101.64,226.06 Q 1102.83,229.57 1104.23,230.92 Q 1106.39,233.00 1109.75,233.00 Q 1122.32,233.00 1134.90,233.00 Q 1140.44,233.00 1142.48,232.12 Q 1146.36,230.44 1147.74,225.75 Q 1150.04,217.95 1151.57,209.96 Q 1152.18,206.75 1154.06,204.35 A 4.67,4.65 67.5 0 0 1155.03,201.99 Q 1156.08,192.96 1158.50,186.79 Q 1159.49,184.25 1159.75,179.50 Q 1159.82,178.21 1160.79,176.93 Q 1161.83,175.57 1162.14,174.65 Q 1164.25,168.38 1165.12,161.81 Q 1165.19,161.30 1165.24,161.82 Q 1165.83,167.70 1164.46,172.72 Q 1163.72,175.43 1163.75,178.24 Q 1163.83,187.33 1163.66,196.41 Q 1163.57,201.67 1163.73,210.09 Q 1163.87,216.93 1163.62,223.78 Q 1163.47,227.83 1163.92,229.18 Q 1164.99,232.35 1168.75,232.75 Q 1174.49,233.36 1197.07,233.00 Q 1202.41,232.91 1204.18,232.03 Q 1208.07,230.08 1207.25,224.25 Q 1206.72,220.48 1207.01,207.59 Q 1207.26,196.38 1207.28,190.91 Q 1207.40,144.90 1207.02,98.88 Q 1206.99,96.18 1206.55,95.18 Q 1205.63,93.08 1203.00,93.00 Q 1187.28,92.52 1158.08,92.74 Q 1157.95,92.74 1155.92,92.69 Q 1152.66,92.61 1151.06,93.81 Q 1147.24,96.69 1146.86,102.93 Q 1146.66,106.19 1143.62,111.04 A 2.47,2.45 -28.8 0 0 1143.25,112.30 Q 1143.20,117.33 1141.57,121.85 Q 1141.55,121.88 1140.11,124.93 Q 1139.10,127.07 1138.89,129.49 Q 1138.62,132.57 1136.86,135.00 Q 1136.31,135.75 1136.20,136.68 Q 1135.04,145.90 1131.48,152.81 Q 1131.25,153.25 1131.26,153.74 Q 1131.39,158.45 1130.56,160.31 Q 1127.38,167.52 1125.54,176.25 Q 1125.07,178.45 1124.65,176.28 L 1122.21,163.90 Q 1121.90,162.35 1121.49,161.54 Q 1119.55,157.72 1118.74,153.74 Q 1117.74,148.82 1117.12,146.93 Q 1115.53,142.14 1114.25,137.25 Q 1113.94,136.06 1112.31,133.19 Q 1110.96,130.79 1111.00,128.28 Q 1111.03,125.85 1110.19,123.57 Q 1108.09,117.89 1106.71,112.00 Q 1106.29,110.23 1104.68,105.69 Q 1103.66,102.80 1103.00,99.00 Q 1102.46,95.86 1099.93,94.16 Q 1098.22,93.01 1094.79,92.95 Q 1066.00,92.44 1050.75,92.75 Q 1044.64,92.87 1043.76,97.59 Q 1043.75,97.64 1043.75,104.92 Q 1043.76,165.96 1043.94,227.00 Q 1043.95,230.60 1046.81,231.94 Q 1049.58,233.23 1053.75,233.17 Q 1065.00,233.00 1076.25,233.00 Q 1083.72,233.00 1084.83,226.66 Q 1085.00,225.70 1084.89,223.84 Q 1084.80,222.42 1084.81,221.00 Q 1085.00,196.24 1084.25,171.50 Q 1084.11,166.85 1084.83,163.31 Q 1084.93,162.80 1084.99,163.30 ZM 523.46,94.61 Q 522.60,97.72 522.69,100.88 Q 522.75,103.04 522.75,103.13 Q 522.75,164.94 522.75,226.75 Q 522.75,230.14 524.65,231.65 A 1.54,1.24 -21.7 0 0 525.56,231.93 Q 539.03,231.71 552.50,231.69 Q 555.39,231.68 556.81,231.16 Q 559.04,230.33 560.43,228.48 Q 561.69,226.81 561.67,223.55 Q 561.25,161.31 561.68,99.07 A 1.62,1.46 -64.4 0 0 561.41,98.15 Q 558.15,93.52 552.25,93.46 Q 538.25,93.31 524.57,93.74 A 1.20,1.18 6.6 0 0 523.46,94.61 ZM 234.87,206.83 Q 237.79,206.99 239.79,208.21 Q 241.71,209.39 243.84,208.64 Q 254.41,204.93 256.06,194.26 Q 257.43,185.44 255.54,176.82 Q 255.08,174.71 254.35,171.00 Q 253.77,168.07 252.78,165.27 Q 251.96,162.99 249.52,157.03 Q 247.09,151.11 243.56,145.79 Q 239.96,140.36 236.16,135.51 Q 231.97,130.18 226.68,125.80 Q 224.81,124.26 222.50,124.98 Q 220.29,125.67 217.83,127.54 Q 215.43,129.37 212.43,129.92 Q 209.43,130.46 207.71,131.73 Q 206.06,132.95 204.01,133.11 Q 194.35,133.88 186.00,133.04 Q 183.30,132.77 180.35,131.48 Q 177.63,130.30 174.88,129.19 Q 172.98,128.42 169.69,126.06 Q 166.38,123.69 163.65,125.65 Q 163.63,125.67 159.90,129.44 Q 155.02,134.37 150.31,140.56 Q 144.64,148.01 140.93,156.22 Q 136.85,165.26 135.02,173.35 Q 132.73,183.47 134.20,193.94 Q 134.77,198.07 136.04,200.34 Q 137.59,203.11 140.44,205.56 Q 143.28,208.01 146.29,208.72 Q 148.10,209.14 150.58,208.23 Q 152.67,207.47 154.77,206.74 A 0.92,0.92 83.5 0 1 155.98,207.71 Q 154.61,220.24 155.89,234.55 Q 155.96,235.40 156.35,236.16 Q 158.67,240.69 159.29,245.25 Q 159.68,248.17 160.57,250.00 Q 164.78,258.68 167.81,262.19 Q 170.73,265.57 173.31,267.44 Q 175.64,269.12 178.54,269.34 Q 181.29,269.55 183.96,269.09 Q 187.09,268.56 189.41,266.31 Q 190.24,265.51 191.14,263.83 Q 191.86,262.47 192.66,261.16 Q 193.62,259.60 194.80,259.45 Q 196.56,259.21 197.49,261.54 Q 199.05,265.45 202.24,267.58 Q 205.28,269.62 209.25,269.41 Q 213.16,269.21 216.60,267.05 Q 220.05,264.88 224.31,259.06 Q 230.52,250.60 231.61,241.85 Q 231.79,240.43 232.31,239.28 Q 232.87,238.04 233.41,236.80 Q 234.20,234.94 234.39,232.93 Q 235.58,220.21 234.25,207.49 A 0.60,0.59 88.7 0 1 234.87,206.83 ZM 81.55,217.96 A 1.43,1.42 -83.3 0 1 82.75,219.49 Q 81.79,231.57 83.17,243.58 Q 83.45,246.04 84.57,248.71 Q 85.62,251.20 86.54,253.74 Q 88.03,257.83 89.89,260.28 Q 92.26,263.41 95.07,266.18 Q 98.26,269.32 103.75,269.25 Q 108.81,269.19 111.56,265.04 Q 112.40,263.78 113.82,262.28 A 1.31,1.22 -41.5 0 1 115.76,262.33 L 118.69,266.37 Q 119.90,268.03 121.22,268.49 Q 125.16,269.84 128.78,269.00 Q 131.82,268.29 134.99,265.32 Q 140.41,260.22 143.25,253.14 Q 145.75,246.90 146.19,243.94 Q 148.20,230.52 146.98,216.73 A 2.64,2.62 10.9 0 0 145.54,214.62 Q 139.99,211.82 135.84,208.16 Q 132.03,204.80 130.41,200.13 Q 128.93,195.85 128.81,195.46 Q 128.05,193.07 128.13,190.50 Q 128.22,187.72 128.24,184.93 Q 128.24,184.84 128.05,181.09 Q 127.88,177.88 129.06,175.81 Q 130.59,173.15 130.75,170.50 Q 130.87,168.48 131.16,166.85 Q 131.40,165.51 132.63,163.58 Q 134.61,160.47 135.01,156.64 Q 135.24,154.45 133.21,153.62 Q 130.91,152.67 128.54,153.77 Q 127.89,154.07 126.93,155.24 Q 126.07,156.29 125.00,156.50 Q 117.72,157.90 108.25,157.00 Q 105.24,156.71 103.37,156.10 Q 102.65,155.87 101.58,154.83 Q 100.68,153.97 99.56,153.69 Q 96.79,153.00 94.75,151.67 Q 94.70,151.64 93.46,150.62 Q 91.18,148.75 88.73,150.98 Q 78.03,160.70 71.35,173.52 Q 68.70,178.61 65.84,183.58 Q 62.74,188.97 62.75,195.25 Q 62.75,200.87 62.59,206.50 Q 62.46,211.24 65.56,214.19 Q 69.46,217.89 75.22,220.02 A 0.89,0.81 -54.5 0 0 76.06,219.84 Q 78.68,217.52 81.55,217.96 ZM 261.35,269.11 Q 264.88,269.85 268.48,268.66 Q 270.50,267.99 271.88,265.98 Q 273.19,264.08 274.32,262.05 A 0.90,0.89 -53.4 0 1 275.72,261.84 Q 277.61,263.66 279.29,265.96 Q 281.74,269.31 285.99,269.43 Q 289.79,269.54 291.44,268.69 Q 295.75,266.46 299.47,261.48 Q 301.79,258.37 302.21,257.70 Q 303.45,255.69 303.93,253.29 Q 304.34,251.28 305.94,247.69 Q 307.12,245.03 307.28,241.81 Q 307.52,236.81 307.53,236.70 Q 308.30,228.60 307.39,219.68 Q 307.11,216.91 309.76,217.75 Q 311.75,218.38 313.37,219.68 A 1.03,0.94 55.4 0 0 314.23,219.88 Q 317.21,219.09 320.56,217.31 Q 324.31,215.34 326.05,211.97 Q 327.25,209.66 327.31,204.81 Q 327.43,194.36 327.00,191.00 Q 326.60,187.93 325.44,185.81 Q 321.89,179.36 318.63,172.76 Q 317.43,170.33 315.87,168.09 Q 314.31,165.86 312.81,163.60 Q 309.86,159.18 307.93,157.08 Q 304.62,153.47 300.43,150.19 A 2.42,2.41 -40.6 0 0 297.77,149.99 Q 292.54,152.92 287.15,155.50 Q 284.58,156.74 281.00,157.00 Q 272.81,157.60 266.25,156.75 Q 263.83,156.44 261.75,153.95 A 1.63,1.33 72.4 0 0 260.95,153.43 Q 258.35,152.84 256.00,154.07 A 1.03,0.98 81.5 0 0 255.48,154.81 Q 254.76,159.34 256.98,163.08 Q 258.59,165.81 258.85,166.80 Q 259.34,168.70 259.50,171.00 Q 259.70,173.95 260.83,177.80 Q 263.57,187.22 261.11,196.73 Q 258.66,206.15 250.94,210.69 Q 245.73,213.75 243.61,215.15 A 1.04,1.03 -14.7 0 0 243.15,215.93 Q 242.14,228.52 243.48,241.05 Q 243.92,245.14 245.49,249.21 Q 247.38,254.14 248.75,257.00 Q 250.68,261.04 253.94,264.52 Q 257.50,268.30 261.35,269.11 Z"/>
<path fill="#dd4d1f" fill-opacity="0.980" d="M 31.81,0.00 Q 632.44,0.00 1233.06,0.00 Q 1233.03,0.10 1233.00,0.21 Q 632.75,0.28 32.50,0.25 Q 31.89,0.25 31.81,0.00 Z"/>
<path fill="#ffffff" d="M 222.31,54.94 Q 228.57,60.64 231.98,66.94 Q 232.05,67.07 233.59,69.56 Q 234.88,71.64 235.06,74.19 Q 235.15,75.43 236.22,78.28 Q 237.16,80.77 237.39,82.34 Q 237.96,86.30 237.36,90.21 Q 236.54,95.54 236.05,97.86 Q 235.36,101.12 233.62,104.00 Q 231.18,108.03 231.13,108.13 Q 224.98,119.04 213.47,124.18 Q 212.67,124.54 209.47,125.64 Q 208.11,126.10 206.80,126.66 Q 205.30,127.31 204.10,127.54 Q 185.00,131.33 170.31,120.69 Q 156.69,110.83 153.31,93.69 Q 151.99,86.97 152.90,81.29 Q 155.56,64.71 168.79,54.54 Q 173.23,51.13 178.06,48.32 Q 182.72,45.61 187.89,44.93 Q 192.02,44.39 198.11,44.65 Q 211.64,45.22 222.31,54.94 Z"/>
<path fill="#ffffff" d="M 139.06,94.69 Q 144.67,99.91 146.97,105.62 Q 152.11,118.35 147.87,130.47 Q 145.64,136.83 141.20,141.62 Q 136.67,146.51 130.45,149.45 Q 128.83,150.22 127.25,151.07 Q 125.52,152.00 123.93,152.30 Q 115.77,153.82 107.65,152.62 Q 102.38,151.84 97.76,149.04 Q 89.42,143.99 84.06,136.44 Q 83.11,135.09 82.56,132.92 Q 82.08,131.04 81.30,129.38 Q 79.51,125.61 79.38,121.44 Q 79.29,118.28 79.46,115.56 Q 79.65,112.54 80.78,109.74 Q 82.13,106.44 82.17,106.31 Q 82.62,105.05 83.09,103.80 Q 83.56,102.54 84.36,101.49 Q 88.83,95.57 93.56,91.81 Q 100.07,86.65 108.15,85.01 Q 116.13,83.39 123.75,85.68 Q 132.06,88.17 139.06,94.69 Z"/>
<ellipse fill="#ffffff" cx="0.00" cy="0.00" transform="translate(275.95,118.99) rotate(-7.6)" rx="35.14" ry="34.45"/>
<path fill="#ffffff" d="M 462.71,159.50 Q 464.37,160.30 466.35,161.22 Q 468.24,162.09 469.69,163.41 Q 474.19,167.48 476.50,170.25 Q 479.30,173.61 480.26,178.04 Q 480.75,180.32 481.41,186.43 Q 482.45,196.03 479.06,205.56 Q 477.54,209.83 474.95,213.17 Q 473.00,215.69 469.11,219.40 Q 463.93,224.33 457.44,227.40 Q 455.30,228.41 451.27,229.42 Q 448.10,230.22 445.00,231.25 Q 441.29,232.49 438.19,232.67 Q 433.48,232.93 428.75,232.94 Q 403.86,233.00 378.98,233.00 Q 378.83,233.00 377.54,233.10 Q 374.80,233.32 374.80,230.25 Q 374.75,162.38 374.75,94.98 Q 374.75,92.75 376.98,92.75 Q 400.75,92.75 424.50,92.77 Q 430.47,92.77 436.44,93.04 Q 440.40,93.22 444.46,94.18 Q 448.40,95.11 452.34,96.08 Q 458.03,97.49 463.04,100.31 Q 468.15,103.19 471.74,107.58 Q 480.99,118.86 478.74,134.25 Q 478.74,134.29 478.48,137.27 Q 478.31,139.19 477.44,141.19 Q 474.93,146.90 471.84,151.11 Q 468.36,155.86 462.74,158.27 Q 461.38,158.86 462.71,159.50 ZM 415.02,128.15 Q 414.50,130.30 414.86,133.24 Q 415.36,137.28 414.52,141.16 Q 413.92,143.94 416.72,144.45 Q 423.60,145.71 428.58,142.04 Q 431.44,139.94 432.42,138.47 Q 434.10,135.98 432.31,132.63 Q 430.27,128.78 426.03,127.62 Q 422.34,126.61 418.44,125.92 Q 415.67,125.42 415.02,128.15 ZM 414.94,178.44 A 2.11,2.09 -29.6 0 0 414.56,179.79 Q 415.02,186.05 414.78,192.30 Q 414.78,192.36 414.66,193.70 Q 414.35,197.16 417.29,198.55 A 1.82,1.46 -31.6 0 0 418.25,198.67 Q 420.80,198.28 423.35,197.93 Q 423.46,197.92 426.16,197.67 Q 435.71,196.81 435.47,186.50 Q 435.40,183.14 432.06,180.44 Q 430.19,178.92 428.80,178.10 Q 427.41,177.27 425.01,177.30 Q 421.08,177.34 419.81,176.94 Q 416.71,175.94 414.94,178.44 Z"/>
<path fill="#ffffff" d="M 595.85,94.51 Q 597.60,92.72 600.81,92.72 Q 648.53,92.70 696.25,92.53 Q 699.84,92.52 702.57,93.57 Q 705.25,94.61 705.25,97.48 Q 705.25,103.78 705.25,110.06 Q 705.25,116.74 705.23,116.93 Q 704.76,120.40 702.44,123.44 Q 696.21,131.60 689.51,141.39 Q 680.77,154.16 678.15,157.84 Q 666.92,173.62 655.56,189.31 Q 654.16,191.24 652.56,193.00 Q 651.40,194.28 651.12,195.07 Q 650.32,197.30 653.50,197.30 Q 676.50,197.25 699.50,197.25 Q 703.62,197.25 705.69,200.33 Q 707.00,202.29 707.00,206.46 Q 707.00,215.31 707.00,224.16 Q 707.00,228.17 705.64,230.00 Q 703.45,232.94 699.00,232.94 Q 651.00,233.00 602.02,233.00 Q 600.47,233.00 598.93,232.74 Q 594.02,231.90 594.01,226.75 Q 594.00,221.42 594.00,216.09 Q 594.00,208.01 594.01,207.92 Q 594.51,204.37 596.80,201.47 Q 598.66,199.12 598.70,199.06 Q 620.77,167.92 642.69,136.69 Q 643.89,134.97 646.47,132.20 Q 647.40,131.20 647.57,130.46 Q 647.85,129.26 646.80,128.75 Q 646.28,128.50 645.17,128.50 Q 625.24,128.50 605.31,128.50 Q 605.24,128.50 603.69,128.55 Q 600.55,128.65 597.69,127.30 Q 594.58,125.82 594.62,122.25 Q 594.75,110.25 594.75,97.22 Q 594.75,95.64 595.85,94.51 Z"/>
<path fill="#ffffff" d="M 748.19,112.69 Q 758.46,100.97 772.48,95.79 Q 772.63,95.74 776.53,94.09 Q 779.81,92.71 783.50,92.68 Q 816.13,92.46 823.00,93.00 Q 824.65,93.13 830.58,95.48 Q 831.29,95.76 836.72,97.36 Q 840.59,98.51 843.44,101.06 Q 846.22,103.55 844.87,106.92 Q 843.96,109.20 843.94,109.28 Q 842.83,112.77 841.43,116.15 Q 840.75,117.79 838.63,123.65 Q 837.26,127.44 835.16,130.92 Q 833.96,132.91 831.91,133.38 Q 830.93,133.61 828.08,133.56 Q 824.48,133.49 821.19,132.15 Q 816.62,130.28 816.55,130.27 Q 809.50,128.12 800.50,127.75 Q 796.26,127.58 792.82,128.60 Q 789.44,129.60 786.53,132.66 Q 781.35,138.13 779.06,145.81 Q 776.06,155.92 776.30,165.98 Q 776.38,169.38 777.81,174.75 Q 778.58,177.64 779.19,180.57 Q 779.95,184.27 780.91,186.25 Q 786.69,198.14 801.00,198.12 Q 813.93,198.09 825.93,193.41 Q 829.13,192.16 832.50,191.50 Q 837.37,190.56 839.82,193.83 Q 841.01,195.43 840.93,198.49 Q 840.65,208.83 840.72,219.17 Q 840.75,222.65 839.54,224.55 Q 837.16,228.26 832.25,229.00 Q 830.03,229.33 826.69,230.94 Q 822.92,232.74 816.50,232.96 Q 800.52,233.51 784.54,233.14 Q 778.92,233.01 774.63,231.68 Q 762.10,227.79 752.02,219.45 Q 747.20,215.48 744.04,211.05 Q 740.63,206.28 738.43,200.78 Q 737.40,198.19 735.79,195.91 Q 735.50,195.49 735.44,195.00 Q 734.79,189.38 733.50,186.50 Q 731.85,182.80 731.73,179.80 Q 731.63,177.30 731.62,177.21 Q 730.18,162.30 732.34,146.87 Q 732.42,146.29 732.39,145.70 Q 732.20,141.88 733.44,139.94 Q 734.32,138.55 735.06,135.74 Q 735.82,132.84 736.38,131.47 Q 740.52,121.44 748.19,112.69 Z"/>
<path fill="#ffffff" d="M 887.19,109.94 Q 898.15,98.09 913.53,93.96 Q 918.00,92.75 924.60,92.75 Q 940.05,92.75 955.50,92.75 Q 962.26,92.75 967.03,94.42 Q 992.45,103.33 1002.48,127.84 Q 1002.99,129.09 1003.75,132.94 Q 1004.29,135.64 1005.66,137.93 Q 1006.33,139.05 1006.49,140.34 Q 1009.22,162.47 1006.50,184.00 Q 1006.04,187.63 1005.36,189.09 Q 1003.96,192.10 1003.06,195.29 Q 1002.47,197.36 1001.21,199.38 Q 999.79,201.66 999.31,203.56 Q 998.66,206.13 997.40,207.68 Q 996.58,208.68 996.53,208.75 Q 983.93,225.85 963.94,231.62 Q 959.12,233.01 952.38,233.15 Q 941.44,233.38 930.50,233.25 Q 920.94,233.13 916.12,231.96 Q 889.02,225.35 877.27,200.99 Q 875.85,198.04 874.20,192.81 Q 873.33,190.04 872.42,187.27 Q 871.45,184.33 871.17,181.60 Q 869.49,165.22 871.00,145.25 Q 871.35,140.61 872.24,138.91 Q 873.81,135.91 874.10,132.51 Q 874.38,129.25 876.06,126.81 Q 877.26,125.08 878.04,123.36 Q 879.30,120.56 879.77,119.79 Q 883.15,114.30 887.19,109.94 ZM 923.44,134.19 Q 919.87,138.71 918.42,143.60 Q 917.81,145.68 916.36,153.86 Q 915.33,159.63 915.75,164.50 Q 916.26,170.36 918.55,180.44 Q 919.64,185.27 921.44,188.17 Q 923.84,192.04 927.06,194.44 Q 931.23,197.53 936.50,197.60 Q 941.13,197.66 945.74,197.18 Q 948.20,196.93 951.06,194.81 Q 959.19,188.82 959.97,178.23 Q 960.06,177.02 960.51,175.89 Q 961.98,172.18 962.06,168.55 Q 962.16,164.55 962.16,164.46 Q 962.54,158.43 961.67,152.47 Q 961.47,151.11 960.31,147.69 Q 959.50,145.30 959.29,142.75 Q 958.99,139.08 957.94,137.81 Q 955.20,134.52 954.31,132.94 Q 953.22,130.99 949.81,129.44 Q 941.28,125.55 933.52,127.39 Q 927.71,128.77 923.44,134.19 Z"/>
<path fill="#ffffff" d="M 1084.83,163.31 Q 1084.11,166.85 1084.25,171.50 Q 1085.00,196.24 1084.81,221.00 Q 1084.80,222.42 1084.89,223.84 Q 1085.00,225.70 1084.83,226.66 Q 1083.72,233.00 1076.25,233.00 Q 1065.00,233.00 1053.75,233.17 Q 1049.58,233.23 1046.81,231.94 Q 1043.95,230.60 1043.94,227.00 Q 1043.76,165.96 1043.75,104.92 Q 1043.75,97.64 1043.76,97.59 Q 1044.64,92.87 1050.75,92.75 Q 1066.00,92.44 1094.79,92.95 Q 1098.22,93.01 1099.93,94.16 Q 1102.46,95.86 1103.00,99.00 Q 1103.66,102.80 1104.68,105.69 Q 1106.29,110.23 1106.71,112.00 Q 1108.09,117.89 1110.19,123.57 Q 1111.03,125.85 1111.00,128.28 Q 1110.96,130.79 1112.31,133.19 Q 1113.94,136.06 1114.25,137.25 Q 1115.53,142.14 1117.12,146.93 Q 1117.74,148.82 1118.74,153.74 Q 1119.55,157.72 1121.49,161.54 Q 1121.90,162.35 1122.21,163.90 L 1124.65,176.28 Q 1125.07,178.45 1125.54,176.25 Q 1127.38,167.52 1130.56,160.31 Q 1131.39,158.45 1131.26,153.74 Q 1131.25,153.25 1131.48,152.81 Q 1135.04,145.90 1136.20,136.68 Q 1136.31,135.75 1136.86,135.00 Q 1138.62,132.57 1138.89,129.49 Q 1139.10,127.07 1140.11,124.93 Q 1141.55,121.88 1141.57,121.85 Q 1143.20,117.33 1143.25,112.30 A 2.47,2.45 -28.8 0 1 1143.62,111.04 Q 1146.66,106.19 1146.86,102.93 Q 1147.24,96.69 1151.06,93.81 Q 1152.66,92.61 1155.92,92.69 Q 1157.95,92.74 1158.08,92.74 Q 1187.28,92.52 1203.00,93.00 Q 1205.63,93.08 1206.55,95.18 Q 1206.99,96.18 1207.02,98.88 Q 1207.40,144.90 1207.28,190.91 Q 1207.26,196.38 1207.01,207.59 Q 1206.72,220.48 1207.25,224.25 Q 1208.07,230.08 1204.18,232.03 Q 1202.41,232.91 1197.07,233.00 Q 1174.49,233.36 1168.75,232.75 Q 1164.99,232.35 1163.92,229.18 Q 1163.47,227.83 1163.62,223.78 Q 1163.87,216.93 1163.73,210.09 Q 1163.57,201.67 1163.66,196.41 Q 1163.83,187.33 1163.75,178.24 Q 1163.72,175.43 1164.46,172.72 Q 1165.83,167.70 1165.24,161.82 Q 1165.19,161.30 1165.12,161.81 Q 1164.25,168.38 1162.14,174.65 Q 1161.83,175.57 1160.79,176.93 Q 1159.82,178.21 1159.75,179.50 Q 1159.49,184.25 1158.50,186.79 Q 1156.08,192.96 1155.03,201.99 A 4.67,4.65 67.5 0 1 1154.06,204.35 Q 1152.18,206.75 1151.57,209.96 Q 1150.04,217.95 1147.74,225.75 Q 1146.36,230.44 1142.48,232.12 Q 1140.44,233.00 1134.90,233.00 Q 1122.32,233.00 1109.75,233.00 Q 1106.39,233.00 1104.23,230.92 Q 1102.83,229.57 1101.64,226.06 Q 1099.87,220.86 1098.54,215.53 Q 1096.97,209.26 1095.63,204.97 Q 1092.12,193.74 1089.60,182.23 A 1.86,1.45 23.5 0 0 1089.15,181.40 Q 1087.78,179.93 1087.50,177.97 Q 1087.12,175.31 1087.08,175.18 Q 1085.64,169.32 1084.99,163.30 Q 1084.93,162.80 1084.83,163.31 Z"/>
<path fill="#ffffff" d="M 523.46,94.61 A 1.20,1.18 6.6 0 1 524.57,93.74 Q 538.25,93.31 552.25,93.46 Q 558.15,93.52 561.41,98.15 A 1.62,1.46 -64.4 0 1 561.68,99.07 Q 561.25,161.31 561.67,223.55 Q 561.69,226.81 560.43,228.48 Q 559.04,230.33 556.81,231.16 Q 555.39,231.68 552.50,231.69 Q 539.03,231.71 525.56,231.93 A 1.54,1.24 -21.7 0 1 524.65,231.65 Q 522.75,230.14 522.75,226.75 Q 522.75,164.94 522.75,103.13 Q 522.75,103.04 522.69,100.88 Q 522.60,97.72 523.46,94.61 Z"/>
<path fill="#ffffff" d="M 234.87,206.83 A 0.60,0.59 88.7 0 0 234.25,207.49 Q 235.58,220.21 234.39,232.93 Q 234.20,234.94 233.41,236.80 Q 232.87,238.04 232.31,239.28 Q 231.79,240.43 231.61,241.85 Q 230.52,250.60 224.31,259.06 Q 220.05,264.88 216.60,267.05 Q 213.16,269.21 209.25,269.41 Q 205.28,269.62 202.24,267.58 Q 199.05,265.45 197.49,261.54 Q 196.56,259.21 194.80,259.45 Q 193.62,259.60 192.66,261.16 Q 191.86,262.47 191.14,263.83 Q 190.24,265.51 189.41,266.31 Q 187.09,268.56 183.96,269.09 Q 181.29,269.55 178.54,269.34 Q 175.64,269.12 173.31,267.44 Q 170.73,265.57 167.81,262.19 Q 164.78,258.68 160.57,250.00 Q 159.68,248.17 159.29,245.25 Q 158.67,240.69 156.35,236.16 Q 155.96,235.40 155.89,234.55 Q 154.61,220.24 155.98,207.71 A 0.92,0.92 83.5 0 0 154.77,206.74 Q 152.67,207.47 150.58,208.23 Q 148.10,209.14 146.29,208.72 Q 143.28,208.01 140.44,205.56 Q 137.59,203.11 136.04,200.34 Q 134.77,198.07 134.20,193.94 Q 132.73,183.47 135.02,173.35 Q 136.85,165.26 140.93,156.22 Q 144.64,148.01 150.31,140.56 Q 155.02,134.37 159.90,129.44 Q 163.63,125.67 163.65,125.65 Q 166.38,123.69 169.69,126.06 Q 172.98,128.42 174.88,129.19 Q 177.63,130.30 180.35,131.48 Q 183.30,132.77 186.00,133.04 Q 194.35,133.88 204.01,133.11 Q 206.06,132.95 207.71,131.73 Q 209.43,130.46 212.43,129.92 Q 215.43,129.37 217.83,127.54 Q 220.29,125.67 222.50,124.98 Q 224.81,124.26 226.68,125.80 Q 231.97,130.18 236.16,135.51 Q 239.96,140.36 243.56,145.79 Q 247.09,151.11 249.52,157.03 Q 251.96,162.99 252.78,165.27 Q 253.77,168.07 254.35,171.00 Q 255.08,174.71 255.54,176.82 Q 257.43,185.44 256.06,194.26 Q 254.41,204.93 243.84,208.64 Q 241.71,209.39 239.79,208.21 Q 237.79,206.99 234.87,206.83 ZM 201.5600,145.1890 A 6.33,3.88 -0.1 0 0 195.2232,141.3200 A 6.33,3.88 -0.1 0 0 188.9000,145.2110 A 6.33,3.88 -0.1 0 0 195.2368,149.0800 A 6.33,3.88 -0.1 0 0 201.5600,145.1890 ZM 195.97,154.71 Q 193.53,153.76 192.22,155.71 Q 191.65,156.56 191.11,158.92 Q 188.76,169.36 187.64,180.01 Q 187.39,182.42 187.30,188.52 Q 187.22,194.12 186.25,197.00 Q 184.53,202.10 188.25,205.50 Q 190.40,207.46 191.53,209.70 Q 192.40,211.44 193.00,211.92 Q 194.36,213.01 195.88,212.32 Q 196.82,211.90 198.23,209.83 Q 199.65,207.76 201.94,205.44 Q 204.74,202.60 203.93,198.26 Q 202.75,191.94 202.78,185.50 Q 202.80,180.00 201.86,174.57 Q 200.51,166.80 199.20,158.70 Q 198.73,155.78 195.97,154.71 Z"/>
<path fill="#df4c20" d="M 415.02,128.15 Q 415.67,125.42 418.44,125.92 Q 422.34,126.61 426.03,127.62 Q 430.27,128.78 432.31,132.63 Q 434.10,135.98 432.42,138.47 Q 431.44,139.94 428.58,142.04 Q 423.60,145.71 416.72,144.45 Q 413.92,143.94 414.52,141.16 Q 415.36,137.28 414.86,133.24 Q 414.50,130.30 415.02,128.15 Z"/>
<path fill="#df4c20" d="M 923.44,134.19 Q 927.71,128.77 933.52,127.39 Q 941.28,125.55 949.81,129.44 Q 953.22,130.99 954.31,132.94 Q 955.20,134.52 957.94,137.81 Q 958.99,139.08 959.29,142.75 Q 959.50,145.30 960.31,147.69 Q 961.47,151.11 961.67,152.47 Q 962.54,158.43 962.16,164.46 Q 962.16,164.55 962.06,168.55 Q 961.98,172.18 960.51,175.89 Q 960.06,177.02 959.97,178.23 Q 959.19,188.82 951.06,194.81 Q 948.20,196.93 945.74,197.18 Q 941.13,197.66 936.50,197.60 Q 931.23,197.53 927.06,194.44 Q 923.84,192.04 921.44,188.17 Q 919.64,185.27 918.55,180.44 Q 916.26,170.36 915.75,164.50 Q 915.33,159.63 916.36,153.86 Q 917.81,145.68 918.42,143.60 Q 919.87,138.71 923.44,134.19 Z"/>
<ellipse fill="#df4c20" cx="0.00" cy="0.00" transform="translate(195.23,145.20) rotate(-0.1)" rx="6.33" ry="3.88"/>
<path fill="#ffffff" d="M 81.55,217.96 Q 78.68,217.52 76.06,219.84 A 0.89,0.81 -54.5 0 1 75.22,220.02 Q 69.46,217.89 65.56,214.19 Q 62.46,211.24 62.59,206.50 Q 62.75,200.87 62.75,195.25 Q 62.74,188.97 65.84,183.58 Q 68.70,178.61 71.35,173.52 Q 78.03,160.70 88.73,150.98 Q 91.18,148.75 93.46,150.62 Q 94.70,151.64 94.75,151.67 Q 96.79,153.00 99.56,153.69 Q 100.68,153.97 101.58,154.83 Q 102.65,155.87 103.37,156.10 Q 105.24,156.71 108.25,157.00 Q 117.72,157.90 125.00,156.50 Q 126.07,156.29 126.93,155.24 Q 127.89,154.07 128.54,153.77 Q 130.91,152.67 133.21,153.62 Q 135.24,154.45 135.01,156.64 Q 134.61,160.47 132.63,163.58 Q 131.40,165.51 131.16,166.85 Q 130.87,168.48 130.75,170.50 Q 130.59,173.15 129.06,175.81 Q 127.88,177.88 128.05,181.09 Q 128.24,184.84 128.24,184.93 Q 128.22,187.72 128.13,190.50 Q 128.05,193.07 128.81,195.46 Q 128.93,195.85 130.41,200.13 Q 132.03,204.80 135.84,208.16 Q 139.99,211.82 145.54,214.62 A 2.64,2.62 10.9 0 1 146.98,216.73 Q 148.20,230.52 146.19,243.94 Q 145.75,246.90 143.25,253.14 Q 140.41,260.22 134.99,265.32 Q 131.82,268.29 128.78,269.00 Q 125.16,269.84 121.22,268.49 Q 119.90,268.03 118.69,266.37 L 115.76,262.33 A 1.31,1.22 -41.5 0 0 113.82,262.28 Q 112.40,263.78 111.56,265.04 Q 108.81,269.19 103.75,269.25 Q 98.26,269.32 95.07,266.18 Q 92.26,263.41 89.89,260.28 Q 88.03,257.83 86.54,253.74 Q 85.62,251.20 84.57,248.71 Q 83.45,246.04 83.17,243.58 Q 81.79,231.57 82.75,219.49 A 1.43,1.42 -83.3 0 0 81.55,217.96 Z"/>
<path fill="#ffffff" d="M 253.94,264.52 Q 250.68,261.04 248.75,257.00 Q 247.38,254.14 245.49,249.21 Q 243.92,245.14 243.48,241.05 Q 242.14,228.52 243.15,215.93 A 1.04,1.03 -14.7 0 1 243.61,215.15 Q 245.73,213.75 250.94,210.69 Q 258.66,206.15 261.11,196.73 Q 263.57,187.22 260.83,177.80 Q 259.70,173.95 259.50,171.00 Q 259.34,168.70 258.85,166.80 Q 258.59,165.81 256.98,163.08 Q 254.76,159.34 255.48,154.81 A 1.03,0.98 81.5 0 1 256.00,154.07 Q 258.35,152.84 260.95,153.43 A 1.63,1.33 72.4 0 1 261.75,153.95 Q 263.83,156.44 266.25,156.75 Q 272.81,157.60 281.00,157.00 Q 284.58,156.74 287.15,155.50 Q 292.54,152.92 297.77,149.99 A 2.42,2.41 -40.6 0 1 300.43,150.19 Q 304.62,153.47 307.93,157.08 Q 309.86,159.18 312.81,163.60 Q 314.31,165.86 315.87,168.09 Q 317.43,170.33 318.63,172.76 Q 321.89,179.36 325.44,185.81 Q 326.60,187.93 327.00,191.00 Q 327.43,194.36 327.31,204.81 Q 327.25,209.66 326.05,211.97 Q 324.31,215.34 320.56,217.31 Q 317.21,219.09 314.23,219.88 A 1.03,0.94 55.4 0 1 313.37,219.68 Q 311.75,218.38 309.76,217.75 Q 307.11,216.91 307.39,219.68 Q 308.30,228.60 307.53,236.70 Q 307.52,236.81 307.28,241.81 Q 307.12,245.03 305.94,247.69 Q 304.34,251.28 303.93,253.29 Q 303.45,255.69 302.21,257.70 Q 301.79,258.37 299.47,261.48 Q 295.75,266.46 291.44,268.69 Q 289.79,269.54 285.99,269.43 Q 281.74,269.31 279.29,265.96 Q 277.61,263.66 275.72,261.84 A 0.90,0.89 -53.4 0 0 274.32,262.05 Q 273.19,264.08 271.88,265.98 Q 270.50,267.99 268.48,268.66 Q 264.88,269.85 261.35,269.11 Q 257.50,268.30 253.94,264.52 Z"/>
<path fill="#df4c20" d="M 195.97,154.71 Q 198.73,155.78 199.20,158.70 Q 200.51,166.80 201.86,174.57 Q 202.80,180.00 202.78,185.50 Q 202.75,191.94 203.93,198.26 Q 204.74,202.60 201.94,205.44 Q 199.65,207.76 198.23,209.83 Q 196.82,211.90 195.88,212.32 Q 194.36,213.01 193.00,211.92 Q 192.40,211.44 191.53,209.70 Q 190.40,207.46 188.25,205.50 Q 184.53,202.10 186.25,197.00 Q 187.22,194.12 187.30,188.52 Q 187.39,182.42 187.64,180.01 Q 188.76,169.36 191.11,158.92 Q 191.65,156.56 192.22,155.71 Q 193.53,153.76 195.97,154.71 Z"/>
<path fill="#df4c20" d="M 414.94,178.44 Q 416.71,175.94 419.81,176.94 Q 421.08,177.34 425.01,177.30 Q 427.41,177.27 428.80,178.10 Q 430.19,178.92 432.06,180.44 Q 435.40,183.14 435.47,186.50 Q 435.71,196.81 426.16,197.67 Q 423.46,197.92 423.35,197.93 Q 420.80,198.28 418.25,198.67 A 1.82,1.46 -31.6 0 1 417.29,198.55 Q 414.35,197.16 414.66,193.70 Q 414.78,192.36 414.78,192.30 Q 415.02,186.05 414.56,179.79 A 2.11,2.09 -29.6 0 1 414.94,178.44 Z"/>
</svg>
